<svg width="41" height="36" viewBox="0 0 41 36" fill="none" xmlns="http://www.w3.org/2000/svg">
<path fill-rule="evenodd" clip-rule="evenodd" d="M22.1648 0.160305C21.8144 0.382693 22.0253 0.949941 22.787 1.83401C23.1151 2.21471 23.3836 2.70586 23.3836 2.92509C23.3836 3.17951 24.0513 3.82982 25.2273 4.72084C27.0177 6.07731 27.0375 6.08616 25.9121 5.0305C24.7956 3.98285 24.788 3.96831 25.7014 4.63358C26.2229 5.01343 27.0559 5.73477 27.5525 6.23667C28.4103 7.10388 28.4295 7.1492 27.935 7.1492C27.6488 7.1492 27.1903 7.06382 26.916 6.95969C26.1903 6.68355 25.28 6.90889 25.28 7.36442C25.28 7.69558 25.0718 7.74153 23.5665 7.74153C22.3604 7.74153 21.7997 7.82542 21.6732 8.02505C21.5639 8.1979 21.4924 7.75481 21.4903 6.89055C21.4863 5.1243 21.2463 4.92995 18.8141 4.72422L17.0892 4.57814L16.944 5.35133C16.8643 5.77671 16.8662 7.25017 16.9484 8.62581L17.0976 11.1269L16.1205 11.0472C15.0236 10.9578 14.9327 11.058 14.8815 12.4132C14.8499 13.2555 14.8453 13.2599 14.0069 13.2582C12.4326 13.2551 12.2158 13.1122 12.2158 12.0782C12.2158 11.3975 12.1326 11.1543 11.8998 11.1543C11.6987 11.1543 11.5788 10.9435 11.5704 10.5746C11.5571 10.0061 11.5531 10.0042 11.3614 10.4827C11.2487 10.7643 11.066 10.9089 10.9299 10.8246C10.8001 10.7443 10.611 10.8094 10.5099 10.9692C10.4056 11.1338 10.3245 11.1575 10.3226 11.0238C10.3207 10.8832 10.048 10.8195 9.64746 10.8663C9.25953 10.9115 8.90448 10.8328 8.80777 10.6806C8.68787 10.4918 8.6392 10.5215 8.63688 10.7854C8.63519 10.9882 8.55196 11.1543 8.4523 11.1543C8.35242 11.1543 8.31597 11.3914 8.37138 11.6813C8.43017 11.9888 8.37412 12.2083 8.23695 12.2083C8.10736 12.2083 7.99337 11.8527 7.98346 11.4178L7.96534 10.6273L7.75379 11.2597C7.48681 12.0578 7.41517 19.2018 7.65454 21.167C7.75336 21.9786 7.86441 23.5288 7.90149 24.6118C7.93858 25.6949 8.07913 27.0408 8.21377 27.6028C8.44302 28.5583 8.51677 29.435 8.60001 32.1912C8.65437 33.9905 9.22119 34.3402 12.2158 34.4214L13.164 34.4471L13.1166 32.0756C13.0772 30.1047 13.1217 29.7042 13.38 29.7042C13.5509 29.7042 13.6923 29.8701 13.694 30.0731C13.6965 30.356 13.7389 30.3762 13.8756 30.1606C13.9738 30.0056 14.1346 29.8941 14.233 29.9127C14.3314 29.931 14.4799 29.7731 14.5634 29.5617C14.6839 29.2556 14.7178 29.2455 14.7296 29.5122C14.7404 29.7548 14.9315 29.8362 15.4227 29.8069C15.7958 29.7847 16.2088 29.8743 16.3405 30.0061C16.4722 30.1378 16.6505 31.2384 16.7364 32.4515C16.8932 34.6636 17.1208 35.5145 17.4942 35.2837C17.6859 35.165 17.7887 35.4777 17.7042 35.9226C17.6823 36.0386 17.7774 36.0224 17.9156 35.8864C18.054 35.7506 18.2902 35.6868 18.4407 35.7445C18.6046 35.8073 18.7519 35.6528 18.8077 35.359C18.8906 34.9243 18.9045 34.9182 18.93 35.3065C18.954 35.6724 19.0663 35.7285 19.6141 35.648C20.0309 35.5868 20.3367 35.6577 20.4536 35.8425C20.6511 36.1543 20.7522 35.5544 20.6658 34.5839C20.6369 34.2603 20.716 34.1197 20.8932 34.1787C21.0426 34.2285 21.185 34.5337 21.2099 34.8569C21.2347 35.18 21.3201 35.5046 21.3999 35.5782C21.7181 35.8718 21.1224 27.1317 20.7301 25.7518C20.6327 25.4095 20.6839 25.2775 20.9138 25.2775C21.1612 25.2775 21.2644 25.6677 21.3751 27.0166C21.5481 29.1313 21.642 29.4934 22.0177 29.4934C22.1779 29.4934 22.4057 29.6593 22.5239 29.8623C22.6421 30.0653 22.7415 30.1157 22.7451 29.9742C22.7485 29.833 22.8937 29.7721 23.0675 29.8387C23.2763 29.919 23.3886 29.8273 23.3983 29.5687C23.4101 29.258 23.4428 29.2424 23.5564 29.4934C23.7192 29.8528 25.0842 29.9342 25.3278 29.5988C25.4121 29.4829 25.4294 29.2221 25.3664 29.0191C25.2966 28.7951 25.3617 28.6502 25.532 28.6502C25.6964 28.6502 25.921 29.1079 26.0748 29.7569C26.2193 30.3657 26.5177 31.0059 26.7379 31.1798C26.9583 31.3537 27.1836 31.6857 27.2383 31.9175C27.3376 32.3362 27.3384 32.3362 27.3627 31.914C27.3846 31.5341 27.5306 31.4892 28.7367 31.4924C29.4788 31.4943 30.0421 31.4247 29.9886 31.3379C29.9348 31.251 29.9888 31.1798 30.1087 31.1798C30.2385 31.1798 30.2753 30.9239 30.2001 30.5474C30.123 30.1616 30.1611 29.915 30.2981 29.915C30.4214 29.915 30.5672 30.2708 30.6222 30.7055C30.6772 31.1404 30.6797 29.8714 30.6281 27.8859C30.5764 25.9004 30.4418 23.7187 30.3289 23.0376C30.0109 21.1192 29.455 14.094 29.4557 11.9975C29.4559 11.4115 29.7467 8.0984 29.8031 8.03812C29.8341 8.00544 30.2452 8.29002 30.717 8.6705C31.1888 9.05119 32.0984 9.74197 32.7381 10.2057C33.3779 10.6695 33.9055 11.2148 33.9103 11.4178C33.9152 11.6208 33.9904 11.7938 34.0772 11.8029C34.8172 11.8784 35.1495 12.066 35.6049 12.6655C35.8946 13.047 36.3531 13.5692 36.6237 13.8257C37.2299 14.4007 38.7656 15.2201 38.7656 14.9686C38.7656 14.8674 38.8842 14.789 39.029 14.7945C39.6817 14.8187 40.0298 14.7205 40.0298 14.512C40.0298 14.3877 40.1826 14.1332 40.3693 13.9465C40.6814 13.6343 40.6771 13.5839 40.3177 13.3208C40.0307 13.1111 39.9951 12.9924 40.1834 12.8758C40.3537 12.7707 40.0098 12.4035 39.1642 11.7875C38.4623 11.2761 37.6614 10.5883 37.3846 10.259C37.1077 9.92979 35.3375 8.49765 33.451 7.07626C31.5645 5.65508 29.235 3.88062 28.2744 3.13314C26.4223 1.69194 25.28 0.921694 25.28 1.11394C25.28 1.17802 25.4932 1.43561 25.7541 1.68625C26.1165 2.03448 25.93 1.98052 24.9639 1.45732C24.2686 1.08084 23.5039 0.594963 23.2647 0.377423C22.7875 -0.0561811 22.5728 -0.0985508 22.1648 0.160305ZM17.2729 0.50917C16.9832 0.674854 16.4617 0.814189 16.114 0.818827C15.358 0.828734 14.0636 1.65231 12.8737 2.88061C12.3836 3.38651 11.8087 3.77648 11.5533 3.77648C11.3047 3.77648 10.9016 3.97674 10.6576 4.22126C9.72795 5.1536 5.16182 8.20317 4.69572 8.20317C4.42137 8.20317 4.20876 8.33049 4.20876 8.49512C4.20876 8.86253 3.44725 9.37013 2.62526 9.55099C2.27927 9.62709 1.56074 10.09 1.02827 10.5799C0.236206 11.3086 0.0507798 11.6185 0.00905876 12.2846C-0.0244445 12.8219 0.0351871 13.0512 0.184582 12.9587C0.32007 12.875 0.364741 12.9395 0.296049 13.1187C0.149604 13.5004 0.802601 13.7643 1.15976 13.468C1.35235 13.3078 1.45349 13.3196 1.51692 13.5097C1.57613 13.6876 1.94698 13.5287 2.64359 13.0272C3.21462 12.6159 4.30084 11.945 5.0573 11.5358C5.81397 11.1269 7.5357 9.99619 8.88383 9.02337C13.2995 5.83679 15.9111 4.01152 16.2305 3.88884C16.4033 3.82265 16.6652 3.57475 16.8129 3.33824C17.0654 2.93415 17.0523 2.9234 16.5978 3.16012C16.1229 3.40738 16.1237 3.40127 16.6408 2.82791C16.9305 2.50666 17.5409 1.96955 17.9973 1.63418C18.9919 0.903355 19.1647 0.189184 18.344 0.200356C18.0445 0.204572 17.5626 0.343485 17.2729 0.50917ZM12.1865 3.15654L11.689 3.59077L12.2685 3.23769C12.5873 3.04355 12.848 2.84836 12.848 2.80367C12.848 2.63904 12.672 2.73305 12.1865 3.15654Z" fill="#207FF1"/>
</svg>
