<?xml version="1.0" encoding="UTF-8"?>
<!DOCTYPE svg PUBLIC "-//W3C//DTD SVG 1.1//EN" "http://www.w3.org/Graphics/SVG/1.1/DTD/svg11.dtd">
<svg xmlns="http://www.w3.org/2000/svg" xmlns:xlink="http://www.w3.org/1999/xlink">
<symbol id="icon-mail" viewBox="0 0 50 50">
	<circle cx="25" cy="25" r="24.5" stroke="#207FF1"/>
	<path stroke="#207FF1" stroke-linecap="round" stroke-linejoin="round" stroke-width="1.5" d="M15 18h20m-20 0v14.167a.833.833 0 0 0 .833.833h18.334a.833.833 0 0 0 .833-.833V18m-20 0 10 9.167L35 18"/>
</symbol>
<symbol id="icon-phone" viewBox="0 0 50 50">
	<circle cx="25" cy="25" r="24.5" stroke="#207FF1"/>
	<path fill="#207FF1" d="M21.41 34.074c.106.14.246.176.422.176.105 0 .211 0 .316-.07l2.286-1.442a.561.561 0 0 0 .28-.492c0-.07 0-.176-.034-.246l-1.16-2.848c-.07-.21-.282-.351-.563-.351h-.035l-1.969.176a9.217 9.217 0 0 1 0-6.293l1.969.175h.035c.281 0 .492-.14.563-.351l1.16-2.848c.035-.07.035-.176.035-.246a.56.56 0 0 0-.281-.492l-2.286-1.442a.591.591 0 0 0-.738.106c-4.57 4.535-4.57 11.953 0 16.488Zm5.274-14.449c-.141-.246-.457-.281-.668-.105l-.211.21a.426.426 0 0 0-.07.528c.07.14.105.316.105.527 0 .176-.035.352-.106.492a.426.426 0 0 0 .07.528l.212.21c.21.176.527.141.668-.105a2.396 2.396 0 0 0 0-2.285Zm3.199-3.2c-.14-.21-.422-.21-.598-.034l-.21.175c-.141.176-.177.422-.036.598a5.584 5.584 0 0 1 0 7.207c-.14.176-.105.422.035.598l.211.175c.176.176.457.176.598-.035a6.665 6.665 0 0 0 0-8.683Zm-1.617 1.583c-.141-.211-.422-.246-.598-.07l-.211.21c-.176.141-.176.387-.07.563a3.327 3.327 0 0 1 0 4.113c-.106.176-.106.422.07.563l.211.21c.176.176.457.141.598-.07 1.3-1.617 1.265-3.902 0-5.52Z"/>
</symbol>
<symbol id="icon-viber" viewBox="0 0 50 50">
	<circle cx="25" cy="25" r="24.5" stroke="#207FF1"/>
	<path fill="#000" stroke="#207FF1" d="m20.488 32.732.188.103a9.348 9.348 0 0 0 4.505 1.15c5.151 0 9.319-4.142 9.319-9.242 0-5.1-4.167-9.242-9.318-9.243l-4.694 17.232Zm0 0-.203.065m.203-.065-.203.065m0 0-4.494 1.427m4.494-1.427-4.494 1.427m0 0 1.454-4.292.075-.221-.121-.2a9.143 9.143 0 0 1-1.335-4.769m-.073 9.482L25.182 15.5c-5.15 0-9.317 4.141-9.318 9.242m0 0h-.5.5Zm4.704 7.385a8.752 8.752 0 0 0 4.612 1.306c4.824 0 8.755-3.893 8.755-8.69l-13.367 7.384Zm0 0-2.948.936-.942.3.317-.937.948-2.799a8.597 8.597 0 0 1-1.517-4.882c0-4.797 3.93-8.692 8.754-8.692 4.825 0 8.757 3.895 8.755 8.69l-13.367 7.384Zm8.886-4.972.143.07.028.014.05.024-.006.078c-.014.16-.055.377-.14.616-.042.116-.217.313-.52.508-.297.19-.574.287-.68.297a2.357 2.357 0 0 0-.348.066.767.767 0 0 1-.25.01c-.286-.028-.841-.164-2.062-.64-2.08-.813-3.467-2.823-3.823-3.338-.033-.049-.058-.084-.073-.104a5.286 5.286 0 0 1-.49-.779c-.213-.418-.39-.913-.39-1.388 0-.898.424-1.35.66-1.6l.05-.054a.384.384 0 0 1 .273-.136c.062 0 .127.004.206.01h.013a3.867 3.867 0 0 0 .278.01.96.96 0 0 1 .044.092 148.78 148.78 0 0 1 .423 1.018c.145.35.29.695.332.781l.004.01-.02.039a.82.82 0 0 1-.134.22h-.001l-.15.18c-.072.086-.13.156-.186.213l.354.353-.353-.354-.01.01a1.047 1.047 0 0 0-.256.366c-.092.245-.049.495.082.718.15.257.665 1.09 1.438 1.775a6.786 6.786 0 0 0 1.913 1.2c.058.024.102.043.13.057l.005.003c.153.075.355.148.58.12a.849.849 0 0 0 .536-.3c.124-.14.544-.628.753-.92l.006.003.003.001c.079.028.399.176.767.352.352.168.705.341.82.4Z"/>
</symbol>
<symbol id="logo" viewBox="0 0 41 36">
	<path fill="#207FF1" fill-rule="evenodd" d="M22.165.16c-.35.223-.14.79.622 1.674.328.38.597.872.597 1.091 0 .255.667.905 1.843 1.796 1.79 1.356 1.81 1.365.685.31-1.116-1.048-1.124-1.063-.21-.397.52.38 1.354 1.1 1.85 1.603.858.867.878.912.383.912-.286 0-.745-.085-1.019-.19-.726-.275-1.636-.05-1.636.405 0 .332-.208.378-1.713.378-1.207 0-1.767.083-1.894.283-.11.173-.18-.27-.183-1.134-.004-1.767-.244-1.961-2.676-2.167l-1.725-.146-.145.773c-.08.426-.078 1.9.004 3.275l.15 2.5-.977-.079c-1.097-.09-1.188.011-1.24 1.366-.031.842-.036.847-.874.845-1.574-.003-1.791-.146-1.791-1.18 0-.68-.083-.924-.316-.924-.201 0-.321-.21-.33-.58-.013-.568-.017-.57-.209-.091-.112.281-.295.426-.431.342-.13-.08-.319-.016-.42.144-.104.165-.185.189-.187.055-.002-.14-.275-.204-.676-.158-.387.046-.743-.033-.84-.185-.12-.19-.168-.16-.17.104-.002.203-.085.37-.185.37-.1 0-.136.236-.08.526.058.308.002.527-.135.527-.13 0-.244-.355-.254-.79l-.018-.79-.211.632c-.267.798-.339 7.942-.1 9.907.1.812.21 2.362.247 3.445.038 1.083.178 2.429.313 2.99.229.956.303 1.833.386 4.59.054 1.798.621 2.148 3.616 2.23l.948.025-.047-2.371c-.04-1.971.005-2.372.263-2.372.17 0 .312.166.314.37.002.282.045.302.182.087.098-.155.259-.267.357-.248.098.018.247-.14.33-.351.12-.306.155-.317.167-.05.01.243.201.324.693.295.373-.022.786.067.917.2.132.13.31 1.231.396 2.445.157 2.212.385 3.063.758 2.832.192-.119.295.194.21.639-.022.116.073.1.212-.037.138-.135.374-.2.525-.142.164.063.31-.091.367-.385.083-.435.096-.44.122-.053.024.366.136.422.684.342.417-.061.723.01.84.194.197.312.298-.288.212-1.258-.03-.324.05-.464.227-.405.15.05.292.355.317.678.025.323.11.648.19.721.318.294-.278-8.446-.67-9.826-.097-.342-.046-.474.184-.474.247 0 .35.39.461 1.739.173 2.114.267 2.476.643 2.476.16 0 .388.166.506.37.118.202.217.253.221.111.003-.141.149-.202.322-.135.21.08.322-.012.331-.27.012-.311.045-.327.158-.076.163.36 1.528.441 1.772.106.084-.116.101-.377.038-.58-.07-.224-.004-.369.166-.369.164 0 .389.458.543 1.107.144.609.443 1.249.663 1.423.22.174.446.506.5.738.1.418.1.418.125-.004.022-.38.168-.425 1.374-.422.742.002 1.305-.067 1.252-.154-.054-.087 0-.158.12-.158.13 0 .166-.256.091-.633-.077-.385-.039-.632.098-.632.123 0 .27.356.324.79.055.435.058-.834.006-2.82-.052-1.985-.186-4.166-.3-4.847-.317-1.919-.873-8.944-.872-11.04 0-.586.29-3.9.347-3.96.031-.033.442.252.914.633a60.43 60.43 0 0 0 2.021 1.535c.64.463 1.168 1.009 1.172 1.212.005.203.08.376.167.385.74.075 1.073.263 1.528.862.29.382.748.904 1.019 1.16.606.576 2.142 1.395 2.142 1.144 0-.102.118-.18.263-.175.653.025 1-.074 1-.282 0-.124.154-.379.34-.566.312-.312.308-.362-.051-.625-.287-.21-.323-.329-.135-.445.17-.105-.173-.473-1.019-1.088-.702-.512-1.503-1.2-1.78-1.529-.276-.33-2.047-1.761-3.933-3.183a552.147 552.147 0 0 1-5.177-3.943C26.422 1.692 25.28.922 25.28 1.113c0 .065.213.323.474.573.362.348.176.295-.79-.229-.695-.376-1.46-.862-1.7-1.08-.476-.433-.691-.476-1.1-.217Zm-4.892.35c-.29.165-.811.304-1.159.309-.756.01-2.05.833-3.24 2.062-.49.506-1.065.895-1.32.895-.25 0-.652.2-.896.445-.93.933-5.496 3.982-5.962 3.982-.275 0-.487.127-.487.292 0 .368-.762.875-1.584 1.056-.346.076-1.064.539-1.597 1.029-.792.729-.977 1.038-1.019 1.705-.033.537.026.766.176.674.135-.084.18-.02.111.16-.146.381.507.645.864.349.192-.16.293-.148.357.042.06.178.43.019 1.127-.483.57-.411 1.657-1.082 2.413-1.491.757-.41 2.479-1.54 3.827-2.513 4.415-3.186 7.027-5.011 7.346-5.134.173-.066.435-.314.583-.55.252-.405.24-.416-.215-.179-.475.247-.474.241.043-.332.29-.321.9-.858 1.356-1.194.995-.73 1.168-1.445.347-1.434-.3.005-.781.143-1.071.31Zm-5.086 2.647-.498.434.58-.353c.318-.194.579-.39.579-.434 0-.165-.176-.07-.662.353Z" clip-rule="evenodd"/>
</symbol>
</svg>